<mxfile host="app.diagrams.net" modified="2024-02-27T20:36:59.560Z" agent="Mozilla/5.0 (Windows NT 10.0; Win64; x64) AppleWebKit/537.36 (KHTML, like Gecko) Chrome/121.0.0.0 Safari/537.36" version="23.1.7" etag="8x4Qc276NJcrjud6Xl_d" type="github">
  <diagram name="Page-1" id="O238DHj9Xl-5s-4ICOE6">
    <mxGraphModel>
      <root>
        <mxCell id="0" />
        <mxCell id="1" parent="0" />
      </root>
    </mxGraphModel>
  </diagram>
</mxfile>
